<!DOCTYPE svg PUBLIC "-//W3C//DTD SVG 1.1//EN" "http://www.w3.org/Graphics/SVG/1.1/DTD/svg11.dtd">

<!-- Uploaded to: SVG Repo, www.svgrepo.com, Transformed by: SVG Repo Mixer Tools -->
<svg height="164px" width="164px" version="1.1" id="_x34_" xmlns="http://www.w3.org/2000/svg" xmlns:xlink="http://www.w3.org/1999/xlink" viewBox="0 0 512 512" xml:space="preserve" fill="#000000">

<g id="SVGRepo_bgCarrier" stroke-width="0"/>

<g id="SVGRepo_tracerCarrier" stroke-linecap="round" stroke-linejoin="round"/>

<g id="SVGRepo_iconCarrier"> <g> <g> <circle style="fill:#fc0404;" cx="68.291" cy="163.868" r="48.827"/> <circle style="fill:#fc0404;" cx="430.586" cy="163.868" r="48.827"/> <path style="fill:#fc0404;" d="M510.592,150.432c-3.598,2.001-21.717,2.666-25.781-6.327 c-4.064-9.061-15.788-39.838-54.226-40.704c-38.438-0.932-56.558,34.44-57.89,56.491c-0.466,7.794-6.528,10.859-17.654,10.859 c-3.73,0-51.961,0.465-101.391,0.932c-2.065,0-4.13,0.067-6.195,0.067c-4.13,0-8.261,0.067-12.391,0.133 c-1.999,0-4.064,0-6.062,0.067c-6.129,0-12.058,0.067-17.92,0.132c-1.932,0-3.864,0.068-5.729,0.068 c-16.188,0.198-30.644,0.398-41.503,0.532c-10.925,0.133-18.186,0.267-19.918,0.333c-9.926,0.467-13.123-6.328-13.59-11.324 c-0.4-4.93-10.392-58.623-57.357-58.69c-39.637-0.067-58.49,31.51-70.214,48.164c-0.067,0-0.067,0.067-0.067,0.067 c-1.532,2.332-3.464,2.399-2.398-2.531c0-0.133,0.067-0.267,0.067-0.4c3.398-14.855,10.126-43.434,12.457-46.698 C32.616,73.425,147.53,57.702,158.389,57.702L196.36,6.008c11.791-5.861,74.611-7.994,144.692-3.863 c5.929,0.332,11.924,1.265,17.92,2.664c3.53,0.865,7.128,1.865,10.659,3.064c1.865,0.6,3.73,1.265,5.596,1.932 c1.798,0.732,3.664,1.465,5.529,2.199c3.664,1.532,7.261,3.198,10.859,5.063c1.799,0.932,3.598,1.865,5.396,2.864 c3.531,1.932,7.061,3.998,10.526,6.128c3.464,2.132,6.862,4.398,10.193,6.728c3.331,2.266,6.595,4.663,9.792,7.128 c1.199,0.865,2.332,1.799,3.464,2.664c0.067,0.067,0.067,0.067,0.067,0.067c5.196,4.064,10.059,8.127,14.722,12.325 c1.466,1.265,2.864,2.532,4.264,3.798c4.597,4.129,8.86,8.327,12.857,12.323c2.132,2.132,4.197,4.264,6.062,6.328 c8.46,8.861,15.188,16.921,19.852,22.984c0,0,0,0.065,0.067,0.065c2.132,2.799,3.797,5.198,4.996,6.997 C507.195,128.05,515.455,147.702,510.592,150.432z"/> <circle style="fill:#fc0404;" cx="68.291" cy="163.868" r="28.733"/> <circle style="fill:#fc0404;" cx="430.586" cy="163.868" r="28.733"/> <path style="fill:#fafafa;" d="M231.812,15.565c-17.293,0-30.856,3.632-41.324,24.753c-11.313,22.827-5.104,23.278,7.799,23.396 c13.462,0.124,63.652,0.48,76.971,0c10.865-0.391,16.615-2.035,16.954-15.937c0.339-13.902,0.127-17.89,0-22.986 c-0.214-8.575-5.809-9.227-20.006-9.227C256.959,15.565,231.812,15.565,231.812,15.565z"/> <path style="fill:#fafafa;" d="M303.71,28.142c-0.116,7.12-0.308,19.975,0.37,23.705c0.678,3.73,0.339,11.529,12.207,11.868 c11.868,0.339,69.511,0.339,74.258,0c4.747-0.339,12.278-6.757,6.782-16.615c-9.256-16.599-24.628-31.534-85.787-31.534 C305.547,15.565,303.826,21.032,303.71,28.142z"/> </g> <g style="opacity:0.1;"> <circle style="fill:#040000;" cx="430.586" cy="163.868" r="48.827"/> <path style="fill:#040000;" d="M510.592,150.432c-3.598,2.001-21.717,2.666-25.781-6.327 c-4.064-9.061-15.788-39.838-54.226-40.704c-38.438-0.932-56.558,34.44-57.89,56.491c-0.466,7.794-6.528,10.859-17.654,10.859 c-3.73,0-51.961,0.465-101.391,0.932c-2.065,0-4.13,0.067-6.195,0.067c-4.13,0-8.261,0.067-12.391,0.133 c-1.999,0-4.064,0-6.062,0.067c-6.129,0-12.058,0.067-17.92,0.132c-1.932,0-3.864,0.068-5.729,0.068L369.631,7.873 c1.865,0.6,3.73,1.265,5.596,1.932c1.798,0.732,3.664,1.465,5.529,2.199c3.664,1.599,7.261,3.264,10.859,5.063 c1.799,0.932,3.598,1.865,5.396,2.864c3.531,1.932,7.061,3.998,10.526,6.128c3.464,2.132,6.862,4.398,10.193,6.728 c3.331,2.266,6.595,4.663,9.792,7.128c1.199,0.865,2.332,1.799,3.464,2.664c0.067,0.067,0.067,0.067,0.067,0.067 c5.196,4.064,10.059,8.127,14.722,12.325c1.466,1.265,2.864,2.532,4.264,3.798c4.597,4.129,8.86,8.327,12.857,12.323 c2.065,2.132,4.13,4.264,6.062,6.328c8.46,8.861,15.188,16.921,19.852,22.984c0,0,0,0.065,0.067,0.065 c2.132,2.799,3.797,5.198,4.996,6.997C507.195,128.05,515.455,147.702,510.592,150.432z"/> </g> </g> </g>

</svg>